<?xml version="1.0" encoding="utf-8"?>
<!-- Generator: Adobe Illustrator 26.5.3, SVG Export Plug-In . SVG Version: 6.00 Build 0)  -->
<svg version="1.1" id="Layer_1" xmlns="http://www.w3.org/2000/svg" xmlns:xlink="http://www.w3.org/1999/xlink" x="0px" y="0px"
	 viewBox="0 0 202 74.3" style="enable-background:new 0 0 202 74.3;" xml:space="preserve">
<style type="text/css">
	.st0{fill:none;stroke:#FFFFFF;stroke-miterlimit:2.8375;}
	.st1{fill:none;stroke:#FFFFFF;stroke-miterlimit:4.5102;}
	.st2{fill:none;stroke:#FFFFFF;stroke-miterlimit:11.1454;}
	.st3{fill:none;stroke:#FFFFFF;}
	.st4{fill:none;stroke:#FFFFFF;stroke-miterlimit:1.3892;}
</style>
<g>
	<path class="st0" d="M36.8,31.4L35.8,32L34.7,33l-0.6,1.1l-0.6,1.6l0,2.7l0.5,1.6l0.5,1.1l1.1,1.1l1.1,0.6l2.2,0l1.1-0.5l1.1-1.1
		l0.6-1.1l0.6-1.6l0-2.7l-0.5-1.6l-0.5-1.1L40.1,32L39,31.5L36.8,31.4 M45.4,42.9l0.2-11.4l4.9,0.1l1.6,0.6l0.5,0.5l0.5,1.1l0,1.1
		L52.5,36l-0.5,0.5L50.3,37L45.4,37 M49.2,37l3.7,6 M56.7,43.1l0.2-11.4l4.9,0.1l1.6,0.6l0.5,0.5l0.5,1.1l0,1.1l-0.6,1.1l-0.5,0.5
		l-1.6,0.5 M56.8,37.1l4.9,0.1l1.6,0.6l0.5,0.5l0.5,1.1l0,1.6l-0.6,1.1l-0.5,0.5l-1.6,0.5l-4.9-0.1 M68.1,43.2l0.2-11.4 M76.4,32
		l-0.2,11.4 M72.6,31.9l7.6,0.1 M89.9,33.8l-1.1-1.1l-1.6-0.6l-2.2,0l-1.6,0.5l-1.1,1.1l0,1.1l0.5,1.1l0.5,0.5l1.1,0.6l3.2,1.1
		l1.1,0.6l0.5,0.5l0.5,1.1l0,1.6L88.7,43l-1.6,0.5l-2.2,0l-1.6-0.6l-1.1-1.1 M97,32.3l-0.2,11.4 M93.2,32.2l7.6,0.1 M102.8,43.7
		l4.5-11.3l4.2,11.4 M104.5,39.9l5.4,0.1 M118.6,32.6l-0.2,11.4 M114.9,32.5l7.6,0.1 M124.5,44l0.2-11.4 M132.2,32.7l-1.1,0.5
		l-1.1,1.1l-0.6,1.1l-0.6,1.6l0,2.7l0.5,1.6l0.5,1.1l1.1,1.1l1.1,0.6l2.2,0l1.1-0.5l1.1-1.1l0.6-1.1l0.6-1.6l0-2.7l-0.5-1.6
		l-0.5-1.1l-1.1-1.1l-1.1-0.6L132.2,32.7 M140.7,44.2l0.2-11.4l7.4,11.5l0.2-11.4"/>
	<path class="st1" d="M187.8,46.9c-5.1-0.4-7.5,3.5-12.3,3.4c0.4-0.6,0.6-1.4,0.3-2.1l0,0c0,0-0.1-0.1-0.1-0.1l-0.7,0
		c0-0.1,0-1.7,0-1.8l0.5,0l0.1-0.1c0.5-0.9,0.1-1.7-0.6-2.2c1.4,0,4,0.5,5.7,1.4C183.1,45.4,185.6,45.5,187.8,46.9z"/>
	<path class="st2" d="M155.2,37.4l-0.1,6.6l3.8,0.1 M160.5,37.4l-0.1,6.6l3.8,0.1 M170.5,39.1l-0.3-0.6l-0.6-0.6l-0.6-0.3l-1.3,0
		l-0.6,0.3l-0.6,0.6l-0.3,0.6l-0.3,0.9l0,1.6l0.3,0.9l0.3,0.6l0.6,0.6l0.6,0.3l1.3,0l0.6-0.3l0.6-0.6l0.3-0.6"/>
	<path class="st3" d="M174.2,46.5l-92.1,0"/>
	<path class="st4" d="M188.4,46c34-7.8-5.2-16.2-40.6-19.6c37.8-18.5,8-17.1-29.7-6.2C107.4-6.9,76.9-6.1,69.9,23
		C13.5,22.1-38.9,35.8,42.4,47.6L41.7,48c-8.5,4.2-14.2,7.7-16.3,10.2c-0.9,1-1.2,1.9-0.8,2.4c2.1,3.2,21.1,0.5,47.5-6.8l0.2-0.1
		l0.1,0.2c3.8,9,10.2,15.8,17.4,18.5c5.3,2,10.7,1.7,15.8-0.7c7-3.4,12.4-10.9,14.9-20.5l0-0.2l0.2,0"/>
	<path class="st0" d="M138.2,55.7l-0.5-1.1l-1.1-1.1l-1.1-0.6l-2.2,0l-1.1,0.5l-1.1,1.1l-0.6,1.1l-0.6,1.6l0,2.7l0.5,1.6l0.5,1.1
		l1.1,1.1l1.1,0.6l2.2,0l1.1-0.5l1.1-1.1l0.6-1.1l0-1.6l-2.7,0 M147.9,56.9l-0.1,7.6 M147.9,58.6l-1.1-1.1l-1.1-0.6l-1.6,0l-1.1,0.5
		l-1.1,1.1l-0.6,1.6l0,1.1l0.5,1.6l1.1,1.1l1.1,0.6l1.6,0l1.1-0.5l1.1-1.1 M151.6,64.6l0.1-7.6 M151.7,59.1l1.6-1.6l1.1-0.5l1.6,0
		l1.1,0.6l0.5,1.6l-0.1,5.4 M157.6,59.2l1.6-1.6l1.1-0.5l1.6,0l1.1,0.6l0.5,1.6l-0.1,5.4 M167.9,60.5l6.5,0.1l0-1.1l-0.5-1.1
		l-0.5-0.5l-1.1-0.6l-1.6,0l-1.1,0.5l-1.1,1.1L167.9,60.5l0,1.1l0.5,1.6l1.1,1.1l1.1,0.6l1.6,0l1.1-0.5l1.1-1.1 M183.6,59l-0.5-1.1
		l-1.6-0.6l-1.6,0l-1.6,0.5l-0.6,1.1l0.5,1.1l1.1,0.6l2.7,0.6l1.1,0.6l0.5,1.1l0,0.5l-0.6,1.1l-1.6,0.5l-1.6,0l-1.6-0.6l-0.5-1.1"/>
</g>
</svg>
