<?xml version="1.0" encoding="UTF-8"?>
<svg id="Layer_1" xmlns="http://www.w3.org/2000/svg" version="1.1" viewBox="0 0 129.43 47.84">
  <!-- Generator: Adobe Illustrator 29.0.0, SVG Export Plug-In . SVG Version: 2.1.0 Build 186)  -->
  <defs>
    <style>
      .st0 {
        stroke-miterlimit: 1.39;
      }

      .st0, .st1, .st2, .st3, .st4 {
        fill: none;
        stroke: #230f2f;
      }

      .st1 {
        stroke-miterlimit: 2.84;
      }

      .st2 {
        stroke-miterlimit: 11.15;
      }

      .st3 {
        stroke-miterlimit: 4.51;
      }
    </style>
  </defs>
  <path class="st1" d="M23.72,20.27l-.7.34-.7.68-.36.69-.36,1.03-.02,1.73.33,1.04.34.7.68.7.69.36,1.38.02.7-.34.7-.68.36-.69.36-1.03.02-1.73-.33-1.04-.34-.7-.68-.7-.69-.36-1.38-.02M29.16,27.62l.1-7.27,3.12.04,1.03.36.34.35.34.7v.69s-.36.69-.36.69l-.35.34-1.04.33-3.12-.04M31.64,23.84l2.37,3.84M36.43,27.72l.1-7.27,3.12.04,1.03.36.34.35.34.7v.69s-.36.69-.36.69l-.35.34-1.04.33M36.49,23.91l3.12.04,1.03.36.34.35.34.7v1.04s-.37.69-.37.69l-.35.34-1.04.33-3.12-.04M43.7,27.81l.1-7.27M48.99,20.62l-.1,7.27M46.57,20.58l4.85.07M57.63,21.77l-.68-.7-1.03-.36-1.38-.02-1.04.33-.7.68v.69s.33.7.33.7l.34.35.69.36,2.07.72.69.36.34.35.34.7v1.04s-.72.68-.72.68l-1.04.33-1.38-.02-1.03-.36-.68-.7M62.15,20.79l-.1,7.27M59.73,20.76l4.85.07M65.86,28.12l2.87-7.23,2.67,7.31M66.93,25.71l3.46.05M76,20.98l-.1,7.27M73.57,20.95l4.85.07M79.71,28.3l.1-7.27M84.65,21.1l-.7.34-.7.68-.36.69-.36,1.03-.02,1.73.33,1.04.34.7.68.7.69.36,1.38.02.7-.34.7-.68.36-.69.36-1.03.02-1.73-.33-1.04-.34-.7-.68-.7-.69-.36-1.38-.02M90.09,28.44l.1-7.27,4.75,7.34.1-7.27"/>
  <path class="st3" d="M120.19,30.12c-3.24-.26-4.77,2.22-7.84,2.15.28-.36.37-.93.17-1.37h0s-.04-.09-.04-.1h-.43s-.02-1.1-.03-1.17h.3s.07-.05.07-.05c.31-.56.04-1.1-.41-1.42.9.02,2.59.3,3.64.87,1.55.14,3.16.25,4.56,1.09Z"/>
  <path class="st2" d="M99.35,24.06l-.06,4.21,2.4.03M102.76,24.11l-.06,4.21,2.4.03M109.16,25.19l-.19-.4-.4-.41-.4-.21h-.8s-.4.18-.4.18l-.41.4-.21.4-.21.6v1s.18.6.18.6l.19.4.4.41.4.21h.8s.4-.18.4-.18l.41-.4.21-.4"/>
  <path class="st4" d="M111.51,29.89h-58.87"/>
  <path class="st0" d="M120.59,29.56c21.72-4.98-3.32-10.38-25.92-12.5,24.14-11.83,5.09-10.95-18.99-3.98-6.9-17.34-26.34-16.78-30.81,1.8-36.05-.57-69.55,8.2-17.6,15.73l-.47.23c-5.44,2.67-9.05,4.93-10.43,6.54-.57.67-.74,1.19-.5,1.56,1.31,2.06,13.51.32,30.36-4.35l.13-.03.05.12c2.43,5.77,6.49,10.07,11.13,11.81,3.39,1.27,6.87,1.11,10.07-.45,4.47-2.19,7.95-6.97,9.54-13.13l.03-.11h.12"/>
  <path class="st1" d="M88.47,35.78l-.34-.7-.68-.7-.69-.36-1.38-.02-.7.34-.7.68-.36.69-.36,1.03-.02,1.73.33,1.04.34.7.68.7.69.36,1.38.02.7-.34.7-.68.36-.69v-1.04s-1.72-.02-1.72-.02M94.69,36.56l-.07,4.85M94.68,37.6l-.68-.7-.69-.36h-1.04s-.7.32-.7.32l-.7.68-.36,1.03v.69s.32,1.04.32,1.04l.68.7.69.36h1.04s.7-.32.7-.32l.7-.68M97.05,41.44l.07-4.85M97.1,37.98l1.05-1.02.7-.34h1.04s.69.37.69.37l.33,1.04-.05,3.46M100.91,38.03l1.05-1.02.7-.34h1.04s.69.37.69.37l.33,1.04-.05,3.46M107.47,38.81l4.15.06v-.69s-.33-.7-.33-.7l-.34-.35-.69-.36h-1.04s-.7.32-.7.32l-.7.68-.36,1.03v.69s.32,1.04.32,1.04l.68.7.69.36h1.04s.7-.32.7-.32l.7-.68M117.53,37.91l-.34-.7-1.03-.36h-1.04s-1.04.32-1.04.32l-.36.69.34.7.69.36,1.73.37.69.36.34.7v.35s-.36.69-.36.69l-1.04.33h-1.04s-1.03-.37-1.03-.37l-.34-.7"/>
</svg>