<?xml version="1.0" standalone="no"?>
<svg xmlns="http://www.w3.org/2000/svg" width="500" height="500"><defs><clipPath id="clip-path-dot-color"><circle cx="26" cy="154" r="8" transform="rotate(0,26,154)"/><path d="M 18 178v 16h 8a 8 8, 0, 0, 0, 0 -16" transform="rotate(-90,26,186)"/><rect x="18" y="194" width="16" height="16" transform="rotate(0,26,202)"/><rect x="18" y="210" width="16" height="16" transform="rotate(0,26,218)"/><rect x="18" y="226" width="16" height="16" transform="rotate(0,26,234)"/><path d="M 18 242v 16h 16v -8a 8 8, 0, 0, 0, -8 -8" transform="rotate(180,26,250)"/><path d="M 18 274v 16h 8a 8 8, 0, 0, 0, 0 -16" transform="rotate(180,26,282)"/><path d="M 18 306v 16h 16v -8a 8 8, 0, 0, 0, -8 -8" transform="rotate(-90,26,314)"/><path d="M 18 322v 16h 8a 8 8, 0, 0, 0, 0 -16" transform="rotate(90,26,330)"/><path d="M 34 242v 16h 16v -8a 8 8, 0, 0, 0, -8 -8" transform="rotate(0,42,250)"/><rect x="34" y="258" width="16" height="16" transform="rotate(0,42,266)"/><rect x="34" y="274" width="16" height="16" transform="rotate(0,42,282)"/><path d="M 34 306v 16h 8a 8 8, 0, 0, 0, 0 -16" transform="rotate(0,42,314)"/><path d="M 34 338v 16h 8a 8 8, 0, 0, 0, 0 -16" transform="rotate(180,42,346)"/><path d="M 50 146v 16h 16v -8a 8 8, 0, 0, 0, -8 -8" transform="rotate(-90,58,154)"/><rect x="50" y="162" width="16" height="16" transform="rotate(0,58,170)"/><rect x="50" y="178" width="16" height="16" transform="rotate(0,58,186)"/><rect x="50" y="194" width="16" height="16" transform="rotate(0,58,202)"/><path d="M 50 210v 16h 8a 8 8, 0, 0, 0, 0 -16" transform="rotate(90,58,218)"/><rect x="50" y="274" width="16" height="16" transform="rotate(0,58,282)"/><path d="M 50 290v 16h 8a 8 8, 0, 0, 0, 0 -16" transform="rotate(90,58,298)"/><path d="M 50 322v 16h 8a 8 8, 0, 0, 0, 0 -16" transform="rotate(-90,58,330)"/><rect x="50" y="338" width="16" height="16" transform="rotate(0,58,346)"/><path d="M 66 146v 16h 16v -8a 8 8, 0, 0, 0, -8 -8" transform="rotate(0,74,154)"/><rect x="66" y="162" width="16" height="16" transform="rotate(0,74,170)"/><path d="M 66 226v 16h 8a 8 8, 0, 0, 0, 0 -16" transform="rotate(-90,74,234)"/><path d="M 66 242v 16h 8a 8 8, 0, 0, 0, 0 -16" transform="rotate(90,74,250)"/><path d="M 66 274v 16h 8a 8 8, 0, 0, 0, 0 -16" transform="rotate(0,74,282)"/><path d="M 66 338v 16h 8a 8 8, 0, 0, 0, 0 -16" transform="rotate(0,74,346)"/><path d="M 82 162v 16h 8a 8 8, 0, 0, 0, 0 -16" transform="rotate(0,90,170)"/><path d="M 82 194v 16h 8a 8 8, 0, 0, 0, 0 -16" transform="rotate(180,90,202)"/><path d="M 82 258v 16h 8a 8 8, 0, 0, 0, 0 -16" transform="rotate(180,90,266)"/><path d="M 82 290v 16h 8a 8 8, 0, 0, 0, 0 -16" transform="rotate(-90,90,298)"/><path d="M 82 306v 16h 16v -8a 8 8, 0, 0, 0, -8 -8" transform="rotate(180,90,314)"/><path d="M 98 146v 16h 8a 8 8, 0, 0, 0, 0 -16" transform="rotate(180,106,154)"/><path d="M 98 194v 16h 16v -8a 8 8, 0, 0, 0, -8 -8" transform="rotate(0,106,202)"/><path d="M 98 210v 16h 16v -8a 8 8, 0, 0, 0, -8 -8" transform="rotate(180,106,218)"/><path d="M 98 242v 16h 16v -8a 8 8, 0, 0, 0, -8 -8" transform="rotate(-90,106,250)"/><path d="M 98 258v 16h 16v -8a 8 8, 0, 0, 0, -8 -8" transform="rotate(90,106,266)"/><rect x="98" y="306" width="16" height="16" transform="rotate(0,106,314)"/><path d="M 98 322v 16h 8a 8 8, 0, 0, 0, 0 -16" transform="rotate(90,106,330)"/><rect x="114" y="146" width="16" height="16" transform="rotate(0,122,154)"/><path d="M 114 178v 16h 8a 8 8, 0, 0, 0, 0 -16" transform="rotate(180,122,186)"/><path d="M 114 210v 16h 8a 8 8, 0, 0, 0, 0 -16" transform="rotate(0,122,218)"/><path d="M 114 242v 16h 8a 8 8, 0, 0, 0, 0 -16" transform="rotate(0,122,250)"/><circle cx="122" cy="282" r="8" transform="rotate(0,122,282)"/><rect x="114" y="306" width="16" height="16" transform="rotate(0,122,314)"/><path d="M 114 338v 16h 8a 8 8, 0, 0, 0, 0 -16" transform="rotate(180,122,346)"/><rect x="130" y="146" width="16" height="16" transform="rotate(0,138,154)"/><rect x="130" y="162" width="16" height="16" transform="rotate(0,138,170)"/><path d="M 130 178v 16h 16v -8a 8 8, 0, 0, 0, -8 -8" transform="rotate(90,138,186)"/><path d="M 130 290v 16h 8a 8 8, 0, 0, 0, 0 -16" transform="rotate(-90,138,298)"/><rect x="130" y="306" width="16" height="16" transform="rotate(0,138,314)"/><rect x="130" y="322" width="16" height="16" transform="rotate(0,138,330)"/><path d="M 130 338v 16h 16v -8a 8 8, 0, 0, 0, -8 -8" transform="rotate(90,138,346)"/><path d="M 146 34v 16h 8a 8 8, 0, 0, 0, 0 -16" transform="rotate(180,154,42)"/><circle cx="154" cy="74" r="8" transform="rotate(0,154,74)"/><path d="M 146 98v 16h 8a 8 8, 0, 0, 0, 0 -16" transform="rotate(-90,154,106)"/><rect x="146" y="114" width="16" height="16" transform="rotate(0,154,122)"/><rect x="146" y="130" width="16" height="16" transform="rotate(0,154,138)"/><rect x="146" y="146" width="16" height="16" transform="rotate(0,154,154)"/><rect x="146" y="162" width="16" height="16" transform="rotate(0,154,170)"/><circle cx="154" cy="202" r="8" transform="rotate(0,154,202)"/><circle cx="154" cy="234" r="8" transform="rotate(0,154,234)"/><path d="M 146 258v 16h 8a 8 8, 0, 0, 0, 0 -16" transform="rotate(180,154,266)"/><path d="M 146 306v 16h 8a 8 8, 0, 0, 0, 0 -16" transform="rotate(0,154,314)"/><path d="M 146 354v 16h 16v -8a 8 8, 0, 0, 0, -8 -8" transform="rotate(-90,154,362)"/><rect x="146" y="370" width="16" height="16" transform="rotate(0,154,378)"/><path d="M 146 386v 16h 8a 8 8, 0, 0, 0, 0 -16" transform="rotate(90,154,394)"/><path d="M 146 418v 16h 16v -8a 8 8, 0, 0, 0, -8 -8" transform="rotate(-90,154,426)"/><path d="M 146 434v 16h 8a 8 8, 0, 0, 0, 0 -16" transform="rotate(90,154,442)"/><path d="M 146 466v 16h 8a 8 8, 0, 0, 0, 0 -16" transform="rotate(180,154,474)"/><path d="M 162 18v 16h 8a 8 8, 0, 0, 0, 0 -16" transform="rotate(-90,170,26)"/><path d="M 162 34v 16h 16v -8a 8 8, 0, 0, 0, -8 -8" transform="rotate(90,170,42)"/><rect x="162" y="146" width="16" height="16" transform="rotate(0,170,154)"/><rect x="162" y="162" width="16" height="16" transform="rotate(0,170,170)"/><path d="M 162 210v 16h 8a 8 8, 0, 0, 0, 0 -16" transform="rotate(180,170,218)"/><path d="M 162 242v 16h 16v -8a 8 8, 0, 0, 0, -8 -8" transform="rotate(-90,170,250)"/><rect x="162" y="258" width="16" height="16" transform="rotate(0,170,266)"/><path d="M 162 274v 16h 8a 8 8, 0, 0, 0, 0 -16" transform="rotate(90,170,282)"/><path d="M 162 338v 16h 8a 8 8, 0, 0, 0, 0 -16" transform="rotate(-90,170,346)"/><rect x="162" y="354" width="16" height="16" transform="rotate(0,170,362)"/><rect x="162" y="370" width="16" height="16" transform="rotate(0,170,378)"/><path d="M 162 418v 16h 8a 8 8, 0, 0, 0, 0 -16" transform="rotate(0,170,426)"/><path d="M 162 466v 16h 8a 8 8, 0, 0, 0, 0 -16" transform="rotate(0,170,474)"/><path d="M 178 50v 16h 8a 8 8, 0, 0, 0, 0 -16" transform="rotate(180,186,58)"/><path d="M 178 82v 16h 8a 8 8, 0, 0, 0, 0 -16" transform="rotate(-90,186,90)"/><rect x="178" y="98" width="16" height="16" transform="rotate(0,186,106)"/><path d="M 178 114v 16h 8a 8 8, 0, 0, 0, 0 -16" transform="rotate(90,186,122)"/><path d="M 178 146v 16h 16v -8a 8 8, 0, 0, 0, -8 -8" transform="rotate(0,186,154)"/><path d="M 178 162v 16h 16v -8a 8 8, 0, 0, 0, -8 -8" transform="rotate(90,186,170)"/><path d="M 178 194v 16h 8a 8 8, 0, 0, 0, 0 -16" transform="rotate(-90,186,202)"/><path d="M 178 210v 16h 16v -8a 8 8, 0, 0, 0, -8 -8" transform="rotate(90,186,218)"/><path d="M 178 242v 16h 16v -8a 8 8, 0, 0, 0, -8 -8" transform="rotate(0,186,250)"/><rect x="178" y="258" width="16" height="16" transform="rotate(0,186,266)"/><circle cx="186" cy="298" r="8" transform="rotate(0,186,298)"/><circle cx="186" cy="330" r="8" transform="rotate(0,186,330)"/><rect x="178" y="370" width="16" height="16" transform="rotate(0,186,378)"/><rect x="178" y="386" width="16" height="16" transform="rotate(0,186,394)"/><path d="M 178 402v 16h 16v -8a 8 8, 0, 0, 0, -8 -8" transform="rotate(180,186,410)"/><path d="M 178 450v 16h 8a 8 8, 0, 0, 0, 0 -16" transform="rotate(180,186,458)"/><path d="M 194 18v 16h 8a 8 8, 0, 0, 0, 0 -16" transform="rotate(180,202,26)"/><path d="M 194 50v 16h 8a 8 8, 0, 0, 0, 0 -16" transform="rotate(0,202,58)"/><path d="M 194 258v 16h 16v -8a 8 8, 0, 0, 0, -8 -8" transform="rotate(0,202,266)"/><path d="M 194 274v 16h 8a 8 8, 0, 0, 0, 0 -16" transform="rotate(90,202,282)"/><path d="M 194 338v 16h 8a 8 8, 0, 0, 0, 0 -16" transform="rotate(-90,202,346)"/><rect x="194" y="354" width="16" height="16" transform="rotate(0,202,362)"/><rect x="194" y="370" width="16" height="16" transform="rotate(0,202,378)"/><path d="M 194 402v 16h 8a 8 8, 0, 0, 0, 0 -16" transform="rotate(0,202,410)"/><path d="M 194 434v 16h 8a 8 8, 0, 0, 0, 0 -16" transform="rotate(-90,202,442)"/><path d="M 194 450v 16h 16v -8a 8 8, 0, 0, 0, -8 -8" transform="rotate(90,202,458)"/><rect x="210" y="18" width="16" height="16" transform="rotate(0,218,26)"/><path d="M 210 34v 16h 8a 8 8, 0, 0, 0, 0 -16" transform="rotate(90,218,42)"/><path d="M 210 66v 16h 8a 8 8, 0, 0, 0, 0 -16" transform="rotate(180,218,74)"/><circle cx="218" cy="122" r="8" transform="rotate(0,218,122)"/><path d="M 210 146v 16h 8a 8 8, 0, 0, 0, 0 -16" transform="rotate(180,218,154)"/><circle cx="218" cy="250" r="8" transform="rotate(0,218,250)"/><circle cx="218" cy="298" r="8" transform="rotate(0,218,298)"/><path d="M 210 370v 16h 16v -8a 8 8, 0, 0, 0, -8 -8" transform="rotate(0,218,378)"/><path d="M 210 386v 16h 16v -8a 8 8, 0, 0, 0, -8 -8" transform="rotate(180,218,394)"/><path d="M 210 418v 16h 8a 8 8, 0, 0, 0, 0 -16" transform="rotate(180,218,426)"/><rect x="226" y="18" width="16" height="16" transform="rotate(0,234,26)"/><path d="M 226 50v 16h 8a 8 8, 0, 0, 0, 0 -16" transform="rotate(-90,234,58)"/><rect x="226" y="66" width="16" height="16" transform="rotate(0,234,74)"/><path d="M 226 98v 16h 8a 8 8, 0, 0, 0, 0 -16" transform="rotate(180,234,106)"/><path d="M 226 130v 16h 8a 8 8, 0, 0, 0, 0 -16" transform="rotate(-90,234,138)"/><rect x="226" y="146" width="16" height="16" transform="rotate(0,234,154)"/><path d="M 226 178v 16h 8a 8 8, 0, 0, 0, 0 -16" transform="rotate(180,234,186)"/><path d="M 226 210v 16h 8a 8 8, 0, 0, 0, 0 -16" transform="rotate(180,234,218)"/><circle cx="234" cy="282" r="8" transform="rotate(0,234,282)"/><path d="M 226 322v 16h 8a 8 8, 0, 0, 0, 0 -16" transform="rotate(-90,234,330)"/><rect x="226" y="338" width="16" height="16" transform="rotate(0,234,346)"/><path d="M 226 354v 16h 16v -8a 8 8, 0, 0, 0, -8 -8" transform="rotate(180,234,362)"/><path d="M 226 386v 16h 8a 8 8, 0, 0, 0, 0 -16" transform="rotate(0,234,394)"/><path d="M 226 418v 16h 8a 8 8, 0, 0, 0, 0 -16" transform="rotate(0,234,426)"/><rect x="242" y="18" width="16" height="16" transform="rotate(0,250,26)"/><path d="M 242 66v 16h 16v -8a 8 8, 0, 0, 0, -8 -8" transform="rotate(0,250,74)"/><rect x="242" y="82" width="16" height="16" transform="rotate(0,250,90)"/><rect x="242" y="98" width="16" height="16" transform="rotate(0,250,106)"/><path d="M 242 114v 16h 8a 8 8, 0, 0, 0, 0 -16" transform="rotate(90,250,122)"/><rect x="242" y="146" width="16" height="16" transform="rotate(0,250,154)"/><rect x="242" y="162" width="16" height="16" transform="rotate(0,250,170)"/><path d="M 242 178v 16h 16v -8a 8 8, 0, 0, 0, -8 -8" transform="rotate(90,250,186)"/><rect x="242" y="210" width="16" height="16" transform="rotate(0,250,218)"/><path d="M 242 242v 16h 8a 8 8, 0, 0, 0, 0 -16" transform="rotate(180,250,250)"/><rect x="242" y="338" width="16" height="16" transform="rotate(0,250,346)"/><path d="M 242 354v 16h 16v -8a 8 8, 0, 0, 0, -8 -8" transform="rotate(90,250,362)"/><path d="M 242 450v 16h 16v -8a 8 8, 0, 0, 0, -8 -8" transform="rotate(-90,250,458)"/><path d="M 242 466v 16h 8a 8 8, 0, 0, 0, 0 -16" transform="rotate(90,250,474)"/><path d="M 258 18v 16h 8a 8 8, 0, 0, 0, 0 -16" transform="rotate(0,266,26)"/><path d="M 258 50v 16h 8a 8 8, 0, 0, 0, 0 -16" transform="rotate(180,266,58)"/><rect x="258" y="82" width="16" height="16" transform="rotate(0,266,90)"/><rect x="258" y="146" width="16" height="16" transform="rotate(0,266,154)"/><rect x="258" y="162" width="16" height="16" transform="rotate(0,266,170)"/><rect x="258" y="210" width="16" height="16" transform="rotate(0,266,218)"/><path d="M 258 242v 16h 16v -8a 8 8, 0, 0, 0, -8 -8" transform="rotate(0,266,250)"/><path d="M 258 258v 16h 8a 8 8, 0, 0, 0, 0 -16" transform="rotate(90,266,266)"/><path d="M 258 290v 16h 8a 8 8, 0, 0, 0, 0 -16" transform="rotate(-90,266,298)"/><path d="M 258 306v 16h 16v -8a 8 8, 0, 0, 0, -8 -8" transform="rotate(180,266,314)"/><rect x="258" y="338" width="16" height="16" transform="rotate(0,266,346)"/><path d="M 258 370v 16h 8a 8 8, 0, 0, 0, 0 -16" transform="rotate(-90,266,378)"/><path d="M 258 386v 16h 8a 8 8, 0, 0, 0, 0 -16" transform="rotate(90,266,394)"/><rect x="258" y="450" width="16" height="16" transform="rotate(0,266,458)"/><rect x="274" y="50" width="16" height="16" transform="rotate(0,282,58)"/><path d="M 274 82v 16h 8a 8 8, 0, 0, 0, 0 -16" transform="rotate(0,282,90)"/><path d="M 274 114v 16h 8a 8 8, 0, 0, 0, 0 -16" transform="rotate(-90,282,122)"/><rect x="274" y="130" width="16" height="16" transform="rotate(0,282,138)"/><rect x="274" y="146" width="16" height="16" transform="rotate(0,282,154)"/><path d="M 274 162v 16h 16v -8a 8 8, 0, 0, 0, -8 -8" transform="rotate(90,282,170)"/><path d="M 274 210v 16h 8a 8 8, 0, 0, 0, 0 -16" transform="rotate(0,282,218)"/><path d="M 274 306v 16h 16v -8a 8 8, 0, 0, 0, -8 -8" transform="rotate(0,282,314)"/><rect x="274" y="322" width="16" height="16" transform="rotate(0,282,330)"/><rect x="274" y="338" width="16" height="16" transform="rotate(0,282,346)"/><path d="M 274 354v 16h 16v -8a 8 8, 0, 0, 0, -8 -8" transform="rotate(180,282,362)"/><rect x="274" y="450" width="16" height="16" transform="rotate(0,282,458)"/><path d="M 290 34v 16h 8a 8 8, 0, 0, 0, 0 -16" transform="rotate(-90,298,42)"/><rect x="290" y="50" width="16" height="16" transform="rotate(0,298,58)"/><path d="M 290 66v 16h 8a 8 8, 0, 0, 0, 0 -16" transform="rotate(90,298,74)"/><path d="M 290 146v 16h 8a 8 8, 0, 0, 0, 0 -16" transform="rotate(0,298,154)"/><path d="M 290 178v 16h 16v -8a 8 8, 0, 0, 0, -8 -8" transform="rotate(-90,298,186)"/><path d="M 290 194v 16h 16v -8a 8 8, 0, 0, 0, -8 -8" transform="rotate(180,298,202)"/><path d="M 290 226v 16h 8a 8 8, 0, 0, 0, 0 -16" transform="rotate(180,298,234)"/><path d="M 290 258v 16h 16v -8a 8 8, 0, 0, 0, -8 -8" transform="rotate(-90,298,266)"/><rect x="290" y="274" width="16" height="16" transform="rotate(0,298,282)"/><path d="M 290 290v 16h 16v -8a 8 8, 0, 0, 0, -8 -8" transform="rotate(180,298,298)"/><rect x="290" y="354" width="16" height="16" transform="rotate(0,298,362)"/><rect x="290" y="370" width="16" height="16" transform="rotate(0,298,378)"/><path d="M 290 386v 16h 8a 8 8, 0, 0, 0, 0 -16" transform="rotate(90,298,394)"/><path d="M 290 434v 16h 16v -8a 8 8, 0, 0, 0, -8 -8" transform="rotate(-90,298,442)"/><rect x="290" y="450" width="16" height="16" transform="rotate(0,298,458)"/><path d="M 290 466v 16h 16v -8a 8 8, 0, 0, 0, -8 -8" transform="rotate(180,298,474)"/><circle cx="314" cy="26" r="8" transform="rotate(0,314,26)"/><rect x="306" y="50" width="16" height="16" transform="rotate(0,314,58)"/><path d="M 306 82v 16h 8a 8 8, 0, 0, 0, 0 -16" transform="rotate(-90,314,90)"/><rect x="306" y="98" width="16" height="16" transform="rotate(0,314,106)"/><path d="M 306 114v 16h 8a 8 8, 0, 0, 0, 0 -16" transform="rotate(90,314,122)"/><path d="M 306 178v 16h 16v -8a 8 8, 0, 0, 0, -8 -8" transform="rotate(0,314,186)"/><rect x="306" y="194" width="16" height="16" transform="rotate(0,314,202)"/><path d="M 306 226v 16h 8a 8 8, 0, 0, 0, 0 -16" transform="rotate(0,314,234)"/><path d="M 306 258v 16h 16v -8a 8 8, 0, 0, 0, -8 -8" transform="rotate(0,314,266)"/><rect x="306" y="274" width="16" height="16" transform="rotate(0,314,282)"/><rect x="306" y="290" width="16" height="16" transform="rotate(0,314,298)"/><path d="M 306 338v 16h 16v -8a 8 8, 0, 0, 0, -8 -8" transform="rotate(-90,314,346)"/><path d="M 306 354v 16h 16v -8a 8 8, 0, 0, 0, -8 -8" transform="rotate(90,314,362)"/><circle cx="314" cy="410" r="8" transform="rotate(0,314,410)"/><path d="M 306 434v 16h 16v -8a 8 8, 0, 0, 0, -8 -8" transform="rotate(0,314,442)"/><rect x="306" y="450" width="16" height="16" transform="rotate(0,314,458)"/><rect x="306" y="466" width="16" height="16" transform="rotate(0,314,474)"/><path d="M 322 50v 16h 16v -8a 8 8, 0, 0, 0, -8 -8" transform="rotate(0,330,58)"/><path d="M 322 66v 16h 16v -8a 8 8, 0, 0, 0, -8 -8" transform="rotate(180,330,74)"/><circle cx="330" cy="170" r="8" transform="rotate(0,330,170)"/><rect x="322" y="194" width="16" height="16" transform="rotate(0,330,202)"/><path d="M 322 210v 16h 16v -8a 8 8, 0, 0, 0, -8 -8" transform="rotate(180,330,218)"/><path d="M 322 290v 16h 16v -8a 8 8, 0, 0, 0, -8 -8" transform="rotate(0,330,298)"/><rect x="322" y="306" width="16" height="16" transform="rotate(0,330,314)"/><rect x="322" y="322" width="16" height="16" transform="rotate(0,330,330)"/><rect x="322" y="338" width="16" height="16" transform="rotate(0,330,346)"/><circle cx="330" cy="426" r="8" transform="rotate(0,330,426)"/><path d="M 322 466v 16h 8a 8 8, 0, 0, 0, 0 -16" transform="rotate(0,330,474)"/><circle cx="346" cy="26" r="8" transform="rotate(0,346,26)"/><path d="M 338 66v 16h 8a 8 8, 0, 0, 0, 0 -16" transform="rotate(0,346,74)"/><path d="M 338 114v 16h 8a 8 8, 0, 0, 0, 0 -16" transform="rotate(-90,346,122)"/><path d="M 338 130v 16h 8a 8 8, 0, 0, 0, 0 -16" transform="rotate(90,346,138)"/><path d="M 338 194v 16h 16v -8a 8 8, 0, 0, 0, -8 -8" transform="rotate(0,346,202)"/><rect x="338" y="210" width="16" height="16" transform="rotate(0,346,218)"/><path d="M 338 226v 16h 16v -8a 8 8, 0, 0, 0, -8 -8" transform="rotate(180,346,234)"/><path d="M 338 258v 16h 8a 8 8, 0, 0, 0, 0 -16" transform="rotate(-90,346,266)"/><path d="M 338 274v 16h 16v -8a 8 8, 0, 0, 0, -8 -8" transform="rotate(180,346,282)"/><path d="M 338 322v 16h 16v -8a 8 8, 0, 0, 0, -8 -8" transform="rotate(0,346,330)"/><rect x="338" y="338" width="16" height="16" transform="rotate(0,346,346)"/><rect x="338" y="354" width="16" height="16" transform="rotate(0,346,362)"/><rect x="338" y="370" width="16" height="16" transform="rotate(0,346,378)"/><rect x="338" y="386" width="16" height="16" transform="rotate(0,346,394)"/><path d="M 338 402v 16h 16v -8a 8 8, 0, 0, 0, -8 -8" transform="rotate(180,346,410)"/><path d="M 338 434v 16h 8a 8 8, 0, 0, 0, 0 -16" transform="rotate(-90,346,442)"/><path d="M 338 450v 16h 8a 8 8, 0, 0, 0, 0 -16" transform="rotate(90,346,458)"/><path d="M 354 146v 16h 16v -8a 8 8, 0, 0, 0, -8 -8" transform="rotate(-90,362,154)"/><path d="M 354 162v 16h 8a 8 8, 0, 0, 0, 0 -16" transform="rotate(90,362,170)"/><rect x="354" y="210" width="16" height="16" transform="rotate(0,362,218)"/><path d="M 354 226v 16h 16v -8a 8 8, 0, 0, 0, -8 -8" transform="rotate(90,362,234)"/><path d="M 354 274v 16h 8a 8 8, 0, 0, 0, 0 -16" transform="rotate(0,362,282)"/><circle cx="362" cy="314" r="8" transform="rotate(0,362,314)"/><rect x="354" y="338" width="16" height="16" transform="rotate(0,362,346)"/><rect x="354" y="402" width="16" height="16" transform="rotate(0,362,410)"/><circle cx="362" cy="474" r="8" transform="rotate(0,362,474)"/><rect x="370" y="146" width="16" height="16" transform="rotate(0,378,154)"/><path d="M 370 178v 16h 8a 8 8, 0, 0, 0, 0 -16" transform="rotate(180,378,186)"/><path d="M 370 210v 16h 8a 8 8, 0, 0, 0, 0 -16" transform="rotate(0,378,218)"/><circle cx="378" cy="250" r="8" transform="rotate(0,378,250)"/><path d="M 370 290v 16h 8a 8 8, 0, 0, 0, 0 -16" transform="rotate(180,378,298)"/><rect x="370" y="338" width="16" height="16" transform="rotate(0,378,346)"/><circle cx="378" cy="378" r="8" transform="rotate(0,378,378)"/><rect x="370" y="402" width="16" height="16" transform="rotate(0,378,410)"/><rect x="370" y="418" width="16" height="16" transform="rotate(0,378,426)"/><rect x="370" y="434" width="16" height="16" transform="rotate(0,378,442)"/><path d="M 370 450v 16h 8a 8 8, 0, 0, 0, 0 -16" transform="rotate(90,378,458)"/><path d="M 386 146v 16h 16v -8a 8 8, 0, 0, 0, -8 -8" transform="rotate(0,394,154)"/><rect x="386" y="162" width="16" height="16" transform="rotate(0,394,170)"/><rect x="386" y="178" width="16" height="16" transform="rotate(0,394,186)"/><path d="M 386 194v 16h 8a 8 8, 0, 0, 0, 0 -16" transform="rotate(90,394,202)"/><path d="M 386 290v 16h 8a 8 8, 0, 0, 0, 0 -16" transform="rotate(0,394,298)"/><rect x="386" y="338" width="16" height="16" transform="rotate(0,394,346)"/><rect x="386" y="402" width="16" height="16" transform="rotate(0,394,410)"/><path d="M 386 434v 16h 8a 8 8, 0, 0, 0, 0 -16" transform="rotate(0,394,442)"/><path d="M 402 162v 16h 16v -8a 8 8, 0, 0, 0, -8 -8" transform="rotate(0,410,170)"/><path d="M 402 178v 16h 16v -8a 8 8, 0, 0, 0, -8 -8" transform="rotate(90,410,186)"/><circle cx="410" cy="218" r="8" transform="rotate(0,410,218)"/><circle cx="410" cy="250" r="8" transform="rotate(0,410,250)"/><rect x="402" y="338" width="16" height="16" transform="rotate(0,410,346)"/><rect x="402" y="354" width="16" height="16" transform="rotate(0,410,362)"/><rect x="402" y="370" width="16" height="16" transform="rotate(0,410,378)"/><rect x="402" y="386" width="16" height="16" transform="rotate(0,410,394)"/><rect x="402" y="402" width="16" height="16" transform="rotate(0,410,410)"/><path d="M 402 418v 16h 8a 8 8, 0, 0, 0, 0 -16" transform="rotate(90,410,426)"/><circle cx="426" cy="154" r="8" transform="rotate(0,426,154)"/><path d="M 418 226v 16h 8a 8 8, 0, 0, 0, 0 -16" transform="rotate(180,426,234)"/><path d="M 418 258v 16h 8a 8 8, 0, 0, 0, 0 -16" transform="rotate(-90,426,266)"/><rect x="418" y="274" width="16" height="16" transform="rotate(0,426,282)"/><path d="M 418 290v 16h 8a 8 8, 0, 0, 0, 0 -16" transform="rotate(90,426,298)"/><path d="M 418 322v 16h 16v -8a 8 8, 0, 0, 0, -8 -8" transform="rotate(-90,426,330)"/><rect x="418" y="338" width="16" height="16" transform="rotate(0,426,346)"/><rect x="418" y="354" width="16" height="16" transform="rotate(0,426,362)"/><path d="M 418 370v 16h 16v -8a 8 8, 0, 0, 0, -8 -8" transform="rotate(90,426,378)"/><rect x="418" y="402" width="16" height="16" transform="rotate(0,426,410)"/><path d="M 418 466v 16h 8a 8 8, 0, 0, 0, 0 -16" transform="rotate(180,426,474)"/><circle cx="442" cy="186" r="8" transform="rotate(0,442,186)"/><path d="M 434 226v 16h 16v -8a 8 8, 0, 0, 0, -8 -8" transform="rotate(0,442,234)"/><path d="M 434 242v 16h 8a 8 8, 0, 0, 0, 0 -16" transform="rotate(90,442,250)"/><path d="M 434 306v 16h 8a 8 8, 0, 0, 0, 0 -16" transform="rotate(-90,442,314)"/><rect x="434" y="322" width="16" height="16" transform="rotate(0,442,330)"/><rect x="434" y="338" width="16" height="16" transform="rotate(0,442,346)"/><path d="M 434 402v 16h 16v -8a 8 8, 0, 0, 0, -8 -8" transform="rotate(0,442,410)"/><path d="M 434 418v 16h 8a 8 8, 0, 0, 0, 0 -16" transform="rotate(90,442,426)"/><path d="M 434 466v 16h 8a 8 8, 0, 0, 0, 0 -16" transform="rotate(0,442,474)"/><path d="M 450 146v 16h 8a 8 8, 0, 0, 0, 0 -16" transform="rotate(-90,458,154)"/><path d="M 450 162v 16h 16v -8a 8 8, 0, 0, 0, -8 -8" transform="rotate(180,458,170)"/><path d="M 450 210v 16h 8a 8 8, 0, 0, 0, 0 -16" transform="rotate(180,458,218)"/><circle cx="458" cy="266" r="8" transform="rotate(0,458,266)"/><path d="M 450 290v 16h 8a 8 8, 0, 0, 0, 0 -16" transform="rotate(180,458,298)"/><rect x="450" y="322" width="16" height="16" transform="rotate(0,458,330)"/><rect x="450" y="338" width="16" height="16" transform="rotate(0,458,346)"/><path d="M 450 370v 16h 16v -8a 8 8, 0, 0, 0, -8 -8" transform="rotate(-90,458,378)"/><path d="M 450 386v 16h 8a 8 8, 0, 0, 0, 0 -16" transform="rotate(90,458,394)"/><path d="M 450 450v 16h 8a 8 8, 0, 0, 0, 0 -16" transform="rotate(180,458,458)"/><path d="M 466 162v 16h 8a 8 8, 0, 0, 0, 0 -16" transform="rotate(0,474,170)"/><path d="M 466 194v 16h 8a 8 8, 0, 0, 0, 0 -16" transform="rotate(-90,474,202)"/><path d="M 466 210v 16h 16v -8a 8 8, 0, 0, 0, -8 -8" transform="rotate(90,474,218)"/><path d="M 466 290v 16h 8a 8 8, 0, 0, 0, 0 -16" transform="rotate(0,474,298)"/><path d="M 466 322v 16h 16v -8a 8 8, 0, 0, 0, -8 -8" transform="rotate(0,474,330)"/><path d="M 466 338v 16h 16v -8a 8 8, 0, 0, 0, -8 -8" transform="rotate(90,474,346)"/><path d="M 466 370v 16h 8a 8 8, 0, 0, 0, 0 -16" transform="rotate(0,474,378)"/><circle cx="474" cy="410" r="8" transform="rotate(0,474,410)"/><path d="M 466 450v 16h 8a 8 8, 0, 0, 0, 0 -16" transform="rotate(0,474,458)"/></clipPath><clipPath id="clip-path-corners-square-color-0-0"><path clip-rule="evenodd" d="M 18 58v 32a 40 40, 0, 0, 0, 40 40h 32a 40 40, 0, 0, 0, 40 -40v -32a 40 40, 0, 0, 0, -40 -40h -32a 40 40, 0, 0, 0, -40 40M 58 34h 32a 24 24, 0, 0, 1, 24 24v 32a 24 24, 0, 0, 1, -24 24h -32a 24 24, 0, 0, 1, -24 -24v -32a 24 24, 0, 0, 1, 24 -24" transform="rotate(0,74,74)"/></clipPath><clipPath id="clip-path-corners-dot-color-0-0"><circle cx="74" cy="74" r="24" transform="rotate(0,74,74)"/></clipPath><clipPath id="clip-path-corners-square-color-1-0"><path clip-rule="evenodd" d="M 370 58v 32a 40 40, 0, 0, 0, 40 40h 32a 40 40, 0, 0, 0, 40 -40v -32a 40 40, 0, 0, 0, -40 -40h -32a 40 40, 0, 0, 0, -40 40M 410 34h 32a 24 24, 0, 0, 1, 24 24v 32a 24 24, 0, 0, 1, -24 24h -32a 24 24, 0, 0, 1, -24 -24v -32a 24 24, 0, 0, 1, 24 -24" transform="rotate(90,426,74)"/></clipPath><clipPath id="clip-path-corners-dot-color-1-0"><circle cx="426" cy="74" r="24" transform="rotate(90,426,74)"/></clipPath><clipPath id="clip-path-corners-square-color-0-1"><path clip-rule="evenodd" d="M 18 410v 32a 40 40, 0, 0, 0, 40 40h 32a 40 40, 0, 0, 0, 40 -40v -32a 40 40, 0, 0, 0, -40 -40h -32a 40 40, 0, 0, 0, -40 40M 58 386h 32a 24 24, 0, 0, 1, 24 24v 32a 24 24, 0, 0, 1, -24 24h -32a 24 24, 0, 0, 1, -24 -24v -32a 24 24, 0, 0, 1, 24 -24" transform="rotate(-90,74,426)"/></clipPath><clipPath id="clip-path-corners-dot-color-0-1"><circle cx="74" cy="426" r="24" transform="rotate(-90,74,426)"/></clipPath></defs><rect x="0" y="0" height="500" width="500" clip-path="url('#clip-path-background-color')" fill="#fff"/><rect x="0" y="0" height="500" width="500" clip-path="url('#clip-path-dot-color')" fill="#000000"/><rect x="18" y="18" height="112" width="112" clip-path="url('#clip-path-corners-square-color-0-0')" fill="#000000"/><rect x="50" y="50" height="48" width="48" clip-path="url('#clip-path-corners-dot-color-0-0')" fill="#000000"/><rect x="370" y="18" height="112" width="112" clip-path="url('#clip-path-corners-square-color-1-0')" fill="#000000"/><rect x="402" y="50" height="48" width="48" clip-path="url('#clip-path-corners-dot-color-1-0')" fill="#000000"/><rect x="18" y="370" height="112" width="112" clip-path="url('#clip-path-corners-square-color-0-1')" fill="#000000"/><rect x="50" y="402" height="48" width="48" clip-path="url('#clip-path-corners-dot-color-0-1')" fill="#000000"/></svg>