<?xml version="1.0" encoding="utf-8"?>
<!-- Generator: Adobe Illustrator 26.5.3, SVG Export Plug-In . SVG Version: 6.00 Build 0)  -->
<svg version="1.1" id="Layer_1" xmlns="http://www.w3.org/2000/svg" xmlns:xlink="http://www.w3.org/1999/xlink" x="0px" y="0px"
	 viewBox="0 0 128.9 47.2" style="enable-background:new 0 0 128.9 47.2;" xml:space="preserve">
<style type="text/css">
	.st0{fill:none;stroke:#FFFFFF;stroke-miterlimit:2.8375;}
	.st1{fill:none;stroke:#FFFFFF;stroke-miterlimit:4.5102;}
	.st2{fill:none;stroke:#FFFFFF;stroke-miterlimit:11.1455;}
	.st3{fill:none;stroke:#FFFFFF;}
	.st4{fill:none;stroke:#FFFFFF;stroke-miterlimit:1.3892;}
</style>
<path shape-rendering="=geometricPrecision" class="st0" d="M23.4,20.7l-0.7,0.4L22,21.8l-0.3,0.7l-0.3,1l0,1.7l0.4,1L22,27l0.7,0.7l0.7,0.3l1.4,0l0.7-0.4l0.7-0.7l0.3-0.7
	l0.3-1l0-1.7l-0.4-1l-0.4-0.7l-0.7-0.7l-0.7-0.3L23.4,20.7 M29,28l-0.1-7.3l3.1,0l1,0.3l0.3,0.3l0.4,0.7l0,0.7l-0.3,0.7l-0.3,0.3
	l-1,0.4l-3.1,0 M31.4,24.1l2.5,3.8 M36.2,27.9l-0.1-7.3l3.1,0l1,0.3l0.3,0.3L41,22l0,0.7l-0.3,0.7l-0.3,0.3l-1,0.4 M36.2,24.1l3.1,0
	l1,0.3l0.3,0.3l0.4,0.7l0,1l-0.3,0.7l-0.3,0.3l-1,0.4l-3.1,0 M43.5,27.9l-0.1-7.3 M48.6,20.5l0.1,7.3 M46.2,20.6l4.8,0 M57.3,21.5
	l-0.7-0.7l-1-0.3l-1.4,0l-1,0.4l-0.7,0.7l0,0.7l0.4,0.7l0.3,0.3l0.7,0.3l2.1,0.7l0.7,0.3L57,25l0.4,0.7l0,1l-0.7,0.7l-1,0.4l-1.4,0
	l-1-0.3l-0.7-0.7 M61.8,20.4l0.1,7.3 M59.4,20.5l4.8,0 M65.7,27.7l2.7-7.3l2.8,7.2 M66.7,25.3l3.5,0 M75.7,20.3l0.1,7.3 M73.2,20.4
	l4.8,0 M79.5,27.6l-0.1-7.3 M84.3,20.3l-0.7,0.4l-0.7,0.7L82.6,22l-0.3,1l0,1.7l0.4,1l0.4,0.7l0.7,0.7l0.7,0.3l1.4,0l0.7-0.4
	l0.7-0.7l0.3-0.7l0.3-1l0-1.7l-0.4-1l-0.4-0.7l-0.7-0.7l-0.7-0.3L84.3,20.3 M89.9,27.5l-0.1-7.3l4.9,7.2l-0.1-7.3"/>
<path shape-rendering="=geometricPrecision" class="st1" d="M120,28.5c-3.2-0.2-4.7,2.3-7.8,2.3c0.3-0.4,0.3-0.9,0.1-1.4l0,0c0,0,0-0.1,0-0.1l-0.4,0c0,0,0-1.1-0.1-1.2
	l0.3,0l0.1-0.1c0.3-0.6,0-1.1-0.4-1.4c0.9,0,2.6,0.2,3.7,0.8C117,27.6,118.6,27.7,120,28.5z"/>
<path shape-rendering="=geometricPrecision" class="st2" d="M99.1,22.9l0,4.2l2.4,0 M102.5,22.9l0,4.2l2.4,0 M108.9,23.8l-0.2-0.4l-0.4-0.4l-0.4-0.2l-0.8,0l-0.4,0.2
	l-0.4,0.4l-0.2,0.4l-0.2,0.6l0,1l0.2,0.6l0.2,0.4l0.4,0.4l0.4,0.2l0.8,0l0.4-0.2l0.4-0.4l0.2-0.4"/>
<path shape-rendering="=geometricPrecision" class="st3" d="M111.3,28.5l-58.9,1.3"/>
<path shape-rendering="=geometricPrecision" class="st4" d="M120.4,28c21.6-5.4-3.5-10.3-26.2-11.9C118.1,3.7,99.1,5,75.2,12.4C67.9-4.7,48.5-3.8,44.4,14.9
	C8.3,15.1-25,24.6,27.1,31l-0.5,0.2c-5.4,2.8-8.9,5.1-10.3,6.8c-0.6,0.7-0.7,1.2-0.5,1.6c1.4,2,13.5,0,30.3-5l0.1,0l0.1,0.1
	c2.6,5.7,6.7,9.9,11.4,11.6c3.4,1.2,6.9,1,10.1-0.7c4.4-2.3,7.8-7.1,9.3-13.3l0-0.1l0.1,0"/>
<path shape-rendering="=geometricPrecision" class="st0" d="M88.4,34.9l-0.4-0.7l-0.7-0.7l-0.7-0.3l-1.4,0l-0.7,0.4l-0.7,0.7l-0.3,0.7l-0.3,1l0,1.7l0.4,1l0.4,0.7l0.7,0.7
	l0.7,0.3l1.4,0l0.7-0.4l0.7-0.7l0.3-0.7l0-1l-1.7,0 M94.7,35.5l0,4.8 M94.7,36.6L94,35.9l-0.7-0.3l-1,0l-0.7,0.4l-0.7,0.7l-0.3,1
	l0,0.7l0.4,1l0.7,0.7l0.7,0.3l1,0L94,40l0.7-0.7 M97.1,40.3l0-4.8 M97.1,36.9l1-1l0.7-0.4l1,0l0.7,0.3l0.4,1l0,3.5 M100.9,36.8l1-1
	l0.7-0.4l1,0l0.7,0.3l0.4,1l0,3.5 M107.5,37.5l4.2,0l0-0.7l-0.4-0.7l-0.3-0.3l-0.7-0.3l-1,0l-0.7,0.4l-0.7,0.7L107.5,37.5l0,0.7
	l0.4,1l0.7,0.7l0.7,0.3l1,0l0.7-0.4l0.7-0.7 M117.5,36.4l-0.4-0.7l-1-0.3l-1,0l-1,0.4l-0.3,0.7l0.4,0.7l0.7,0.3l1.7,0.3l0.7,0.3
	l0.4,0.7l0,0.3l-0.3,0.7l-1,0.4l-1,0l-1-0.3l-0.4-0.7"/>
</svg>
