<?xml version="1.0" encoding="utf-8"?>
<!-- Generator: Adobe Illustrator 26.5.3, SVG Export Plug-In . SVG Version: 6.00 Build 0)  -->
<svg version="1.1" id="Layer_1" xmlns="http://www.w3.org/2000/svg" xmlns:xlink="http://www.w3.org/1999/xlink" x="0px" y="0px"
	 viewBox="0 0 254.2 23" style="enable-background:new 0 0 254.2 23;" xml:space="preserve">
<style type="text/css">
	.st0{fill:none;stroke:#000000;stroke-width:0.4018;stroke-miterlimit:1.4477;}
	.st1{fill:none;stroke:#000000;stroke-width:0.4018;stroke-miterlimit:12.6892;}
	.st2{fill:none;stroke:#000000;stroke-width:0.4018;stroke-miterlimit:14.625;}
	.st3{fill:none;stroke:#000000;stroke-width:0.4018;stroke-miterlimit:1.672;}
</style>
<circle class="st0" cx="51.2" cy="16.6" r="1.4"/>
<rect x="40.8" y="4.3" transform="matrix(0.2495 -0.9684 0.9684 0.2495 24.8829 55.1278)" class="st0" width="14.5" height="14.5"/>
<circle class="st0" cx="48" cy="11.5" r="1.4"/>
<circle class="st0" cx="45" cy="6.8" r="1.4"/>
<rect x="119.8" y="4.3" transform="matrix(0.8988 -0.4383 0.4383 0.8988 7.8044 56.8321)" class="st0" width="14.5" height="14.5"/>
<circle class="st0" cx="127" cy="11.5" r="1.4"/>
<circle class="st0" cx="132.4" cy="13.8" r="1.4"/>
<circle class="st0" cx="128.7" cy="6.1" r="1.4"/>
<circle class="st0" cx="125.3" cy="17.2" r="1.4"/>
<circle class="st0" cx="121.5" cy="9.6" r="1.4"/>
<path class="st1" d="M9.6,4c2.2,0.7,4.1,3.9,5.4,6.9c1.2,2.7,1.9,5.1,1.9,5.1c0,0,0,0.1,0,0.1c0,0,0,0,0,0.1c0,0-2.3,1.2-5,2.1
	c-3,1-6.7,1.8-8.7,0.7c-0.1,0-0.2-0.1-0.3-0.1c-2.1-0.9-3.1-3.4-2.1-5.5c0.8-1.8,2.6-2.7,4.5-2.4C3.6,9.8,3,7.8,3.8,6
	c0.9-2.1,3.4-3.1,5.5-2.1C9.4,3.9,9.5,3.9,9.6,4L9.6,4z"/>
<path class="st2" d="M163.5,4.7l11.8,3l-5.8,10.7l-11.8-3L163.5,4.7z"/>
<path class="st2" d="M248.3,5.5c-1.8-0.8-3.9-0.1-4.7,1.5c0,0.1-0.1,0.1-0.1,0.2c-0.4-0.5-0.8-0.8-1.4-1.1c-1.8-0.8-3.9-0.1-4.7,1.5
	c-0.8,1.7,0,3.8,1.9,4.6c0.6,0.3,1.2,0.4,1.8,0.4c-0.1,0.1-0.1,0.2-0.2,0.4c-0.8,1.7,0,3.8,1.9,4.6s3.9,0.1,4.7-1.5
	c0.4-0.8,0.4-1.7,0.1-2.5c0.6,0.3,1.1,0.7,1.5,1c1.2,0.9,1.5,1.9,2.7,2.8l2.2-4.8c-1.5-0.3-2.3,0.1-3.8-0.2
	c-0.5-0.1-1.2-0.3-1.8-0.5c0.8-0.3,1.5-0.9,1.8-1.7C250.9,8.4,250.1,6.3,248.3,5.5"/>
<path class="st3" d="M95.3,6.2c-0.1-0.8-0.4-1.6-0.4-2.4c0.1-0.2,0.4-0.4,0.5-0.6c0.7,0.7,0.6,2,0.9,2.8c0.2-0.1,0.4-0.4,0.6-0.4
	c1.2,0.3,2-1.3,3.2-0.9c-0.3,0.7-1.3,0.8-1.8,1.2c-0.4,0.3-0.5,1-0.8,1.3C96.2,7.9,95,8.4,93.7,9c-0.7,0.3-2.2-0.3-2,1
	c1.2,3.5,0.9,7.6,3.3,10.6c0.3,0.3,0.8,0.4,1.2,0.6c0.9,1-1.4,0.7-1.9,0.8c-1.1,0.1-1.6-0.3-1.9-1.4c-0.2-0.8-0.5-1.6-0.8-2.4
	c-0.6-2.9-0.5-2-2.3-4.2c-0.3-0.3-0.6-0.4-0.9,0c-0.7,1-1.4,2.1-2.2,3.1c-0.5,0.7-1,1.4-1.5,2.1c-0.5,0.8-0.6,1.9-0.9,2.8
	c0,0.1-0.2,0.3-0.3,0.3c-0.7,0.1-1.5,0.6-2.3,0.4c-0.7-0.4,0.2-0.7,0.6-0.9c0.4-0.2,0.7-0.3,0.7-0.9c0.1-0.8,0.5-1.5,0.7-2.2
	c0.6-2.1,1.9-4,2.5-6.1c-1-0.3-0.9-0.3-1-1.3c0-0.9,0.5-1.4,0.9-2c0.1-0.1,0.5-0.1,0.9-0.2c-0.1-0.4-0.1-0.9-0.2-1.4
	c-0.1-0.4-0.4-0.2-0.6-0.2c-0.9,0.3-1.7,0.7-2.6,1.1c-1,0.4-2.1,0.7-3,1.4c-0.5,0.4-0.8,0.1-1.2-0.2c-0.7-0.6,0-2.1,0.9-1.5
	c0.5,0.2,0.9,0.1,1.3-0.2c2.3-1.5,4.8-3.1,7.1-4.4c-0.8-1.1-0.8-2.5,0.3-3.3c1.2-0.8,2.3,0.3,3,1.2c0.2,0.2-0.2,0.7-0.3,0.8
	c0.6,0.8-1,1.9,0.2,2.2c0.8,0.2,1,1.5,1.7,2C94,7,94.7,6.4,95.3,6.2L95.3,6.2z"/>
<path class="st3" d="M212.8,3.5c2.7-0.6,5.3-0.5,8-0.7c0.2,0,0.4-0.1,0.5-0.2c0.5-0.6,0.9,0.3,1.3,0.5c-0.5,0.1-1,0.4-1.4,0.5
	c-1,0.3-2.4-0.2-2.9,1c-0.6,0.6-1.4,0.2-1.4,1.4c0,1.2-0.7,1.8-1.8,1.5c-0.6,0-1.6-1.1-2-0.2c-0.3,0.6-0.4,1.2-0.2,2
	c0.4,1.1,0.5,2.3,0.3,3.5c0.3,1.6,0.4,3.2,0.9,4.8c0.2,0.4,0.2,0.7,0.1,1.1c0,1,0.3,2,0.5,3c0.4,0.1,1,0.2,1.1,0.7
	c-0.9,0.4-1.9,0.1-2.9,0.2c-0.1-1,0.4-3.4-0.5-4c-0.1-0.1-0.2-0.3-0.2-0.4c-0.1-1.8-1-3.3-1.6-5c-0.1-0.3-0.6-0.3-0.7,0
	c-0.6,1.3-1.2,2.5-1.8,3.8c-0.3,0.8-0.4,1.8-0.9,2.5c-0.1,0.7-0.2,1.4-0.3,2.1c-0.9,0-1.8,0.1-2.7,0.1c-0.1-1.4,2.1-0.6,1.7-3.2
	c0.4-2.2,1.4-4.4,2.1-6.6c-0.4-0.4-1.4-0.6-1.2-1.3c0.3-0.8,0.7-1.6,1.7-1.9c0.4-0.4-0.1-1.1-0.2-1.6c-0.5-1.5,0.5-2.1,1.5-2.9
	c0.7-0.7-0.8-0.6-0.6-1.3c-0.4-2.3,1.8-3.2,3.2-1.4C213.6,2.3,211.6,2.5,212.8,3.5L212.8,3.5z"/>
</svg>
