<?xml version="1.0" encoding="UTF-8"?>
<svg id="Layer_1" xmlns="http://www.w3.org/2000/svg" version="1.1" xmlns:xlink="http://www.w3.org/1999/xlink" viewBox="0 0 109.14 109.1">
  <!-- Generator: Adobe Illustrator 29.0.0, SVG Export Plug-In . SVG Version: 2.1.0 Build 186)  -->
  <defs>
    <style>
      .st50 {
        fill: #3d3c6f;
      }

      .st51 {
        fill: none;
        stroke: #3f3c6f;
      }

      .st51, .st52, .st53 {
        stroke-miterlimit: 10;
      }

      .st54 {
        fill: #fff;
      }

      .st52 {
        fill: url(#radial-gradient);
        stroke: #000;
      }

      .st55, .st56 {
        font-family: Webdings, Webdings;
      }

      .st55, .st57 {
        font-size: 8.07px;
      }

      .st58 {
        fill: #b22435;
      }

      .st53 {
        fill: #010101;
        stroke: #fff;
        stroke-width: 1.96px;
      }

      .st56, .st59 {
        font-size: 6px;
      }

      .st60 {
        font-size: 14px;
      }

      .st60, .st57, .st59 {
        font-family: EngraversMT, 'Engravers MT';
      }

      .st60, .st59 {
        fill: #3e3c6f;
      }
    </style>
    <radialGradient id="radial-gradient" cx="54.56" cy="54.54" fx="54.56" fy="54.54" r="41.48" gradientUnits="userSpaceOnUse">
      <stop offset=".44" stop-color="#f1f2f2" stop-opacity=".8"/>
      <stop offset=".53" stop-color="#edeeee" stop-opacity=".8"/>
      <stop offset=".58" stop-color="#e3e4e4" stop-opacity=".8"/>
      <stop offset=".63" stop-color="#d1d1d1" stop-opacity=".8"/>
      <stop offset=".67" stop-color="#b8b8b8" stop-opacity=".8"/>
      <stop offset=".71" stop-color="#979697" stop-opacity=".8"/>
      <stop offset=".74" stop-color="#6f6d6e" stop-opacity=".8"/>
      <stop offset=".78" stop-color="#403d3e" stop-opacity=".8"/>
      <stop offset=".79" stop-color="#231f20" stop-opacity=".8"/>
    </radialGradient>
    <path id="path" d="M24.4,69.83c-8.45-16.65-1.79-37,14.86-45.45,16.65-8.45,37-1.79,45.45,14.86,8.45,16.65,1.79,37-14.86,45.45-16.65,8.45-37,1.79-45.45-14.86Z"/>
  </defs>
  <circle class="st52" cx="54.56" cy="54.54" r="41.48"/>
  <text class="st60" transform="translate(36.16 79.41)"><tspan x="0" y="0">USA</tspan></text>
  <g id="Flag">
    <rect class="st58" x="30.51" y="36.01" width="48.47" height="25.51"/>
    <path class="st53" d="M30.51,38.95h48.47M78.98,42.88H30.51M30.51,46.8h48.47M78.98,50.73H30.51M30.51,54.65h48.47M78.98,58.58H30.51"/>
    <rect class="st50" x="30.51" y="36.01" width="19.39" height="13.74"/>
    <g>
      <g id="s18">
        <g id="s9">
          <g id="s5">
            <g id="s4">
              <path id="st0" data-name="st" class="st54" d="M32.13,36.6l.46,1.42-1.21-.88h1.49l-1.21.88.46-1.42Z"/>
              <path id="st1" data-name="st" class="st54" d="M32.13,39.35l.46,1.42-1.21-.88h1.49l-1.21.88.46-1.42Z"/>
              <path id="st2" data-name="st" class="st54" d="M32.13,42.09l.46,1.42-1.21-.88h1.49l-1.21.88.46-1.42Z"/>
              <path id="st3" data-name="st" class="st54" d="M32.13,44.84l.46,1.42-1.21-.88h1.49l-1.21.88.46-1.42Z"/>
            </g>
            <path id="st4" data-name="st" class="st54" d="M32.13,47.59l.46,1.42-1.21-.88h1.49l-1.21.88.46-1.42Z"/>
          </g>
          <g id="s41" data-name="s4">
            <path id="st5" data-name="st" class="st54" d="M33.74,37.97l.46,1.42-1.21-.88h1.49l-1.21.88.46-1.42Z"/>
            <path id="st6" data-name="st" class="st54" d="M33.74,40.72l.46,1.42-1.21-.88h1.49l-1.21.88.46-1.42Z"/>
            <path id="st7" data-name="st" class="st54" d="M33.74,43.47l.46,1.42-1.21-.88h1.49l-1.21.88.46-1.42Z"/>
            <path id="st8" data-name="st" class="st54" d="M33.74,46.21l.46,1.42-1.21-.88h1.49l-1.21.88.46-1.42Z"/>
          </g>
        </g>
        <g id="s91" data-name="s9">
          <g id="s51" data-name="s5">
            <g id="s42" data-name="s4">
              <path id="st9" data-name="st" class="st54" d="M35.36,36.6l.46,1.42-1.21-.88h1.49l-1.21.88.46-1.42Z"/>
              <path id="st10" data-name="st" class="st54" d="M35.36,39.35l.46,1.42-1.21-.88h1.49l-1.21.88.46-1.42Z"/>
              <path id="st11" data-name="st" class="st54" d="M35.36,42.09l.46,1.42-1.21-.88h1.49l-1.21.88.46-1.42Z"/>
              <path id="st12" data-name="st" class="st54" d="M35.36,44.84l.46,1.42-1.21-.88h1.49l-1.21.88.46-1.42Z"/>
            </g>
            <path id="st13" data-name="st" class="st54" d="M35.36,47.59l.46,1.42-1.21-.88h1.49l-1.21.88.46-1.42Z"/>
          </g>
          <g id="s43" data-name="s4">
            <path id="st14" data-name="st" class="st54" d="M36.97,37.97l.46,1.42-1.21-.88h1.49l-1.21.88.46-1.42Z"/>
            <path id="st15" data-name="st" class="st54" d="M36.97,40.72l.46,1.42-1.21-.88h1.49l-1.21.88.46-1.42Z"/>
            <path id="st16" data-name="st" class="st54" d="M36.97,43.47l.46,1.42-1.21-.88h1.49l-1.21.88.46-1.42Z"/>
            <path id="st17" data-name="st" class="st54" d="M36.97,46.21l.46,1.42-1.21-.88h1.49l-1.21.88.46-1.42Z"/>
          </g>
        </g>
      </g>
      <g id="s181" data-name="s18">
        <g id="s92" data-name="s9">
          <g id="s52" data-name="s5">
            <g id="s44" data-name="s4">
              <path id="st18" data-name="st" class="st54" d="M38.59,36.6l.46,1.42-1.21-.88h1.49l-1.21.88.46-1.42Z"/>
              <path id="st19" data-name="st" class="st54" d="M38.59,39.35l.46,1.42-1.21-.88h1.49l-1.21.88.46-1.42Z"/>
              <path id="st20" data-name="st" class="st54" d="M38.59,42.09l.46,1.42-1.21-.88h1.49l-1.21.88.46-1.42Z"/>
              <path id="st21" data-name="st" class="st54" d="M38.59,44.84l.46,1.42-1.21-.88h1.49l-1.21.88.46-1.42Z"/>
            </g>
            <path id="st22" data-name="st" class="st54" d="M38.59,47.59l.46,1.42-1.21-.88h1.49l-1.21.88.46-1.42Z"/>
          </g>
          <g id="s45" data-name="s4">
            <path id="st23" data-name="st" class="st54" d="M40.21,37.97l.46,1.42-1.21-.88h1.49l-1.21.88.46-1.42Z"/>
            <path id="st24" data-name="st" class="st54" d="M40.21,40.72l.46,1.42-1.21-.88h1.49l-1.21.88.46-1.42Z"/>
            <path id="st25" data-name="st" class="st54" d="M40.21,43.47l.46,1.42-1.21-.88h1.49l-1.21.88.46-1.42Z"/>
            <path id="st26" data-name="st" class="st54" d="M40.21,46.21l.46,1.42-1.21-.88h1.49l-1.21.88.46-1.42Z"/>
          </g>
        </g>
        <g id="s93" data-name="s9">
          <g id="s53" data-name="s5">
            <g id="s46" data-name="s4">
              <path id="st27" data-name="st" class="st54" d="M41.82,36.6l.46,1.42-1.21-.88h1.49l-1.21.88.46-1.42Z"/>
              <path id="st28" data-name="st" class="st54" d="M41.82,39.35l.46,1.42-1.21-.88h1.49l-1.21.88.46-1.42Z"/>
              <path id="st29" data-name="st" class="st54" d="M41.82,42.09l.46,1.42-1.21-.88h1.49l-1.21.88.46-1.42Z"/>
              <path id="st30" data-name="st" class="st54" d="M41.82,44.84l.46,1.42-1.21-.88h1.49l-1.21.88.46-1.42Z"/>
            </g>
            <path id="st31" data-name="st" class="st54" d="M41.82,47.59l.46,1.42-1.21-.88h1.49l-1.21.88.46-1.42Z"/>
          </g>
          <g id="s47" data-name="s4">
            <path id="st32" data-name="st" class="st54" d="M43.44,37.97l.46,1.42-1.21-.88h1.49l-1.21.88.46-1.42Z"/>
            <path id="st33" data-name="st" class="st54" d="M43.44,40.72l.46,1.42-1.21-.88h1.49l-1.21.88.46-1.42Z"/>
            <path id="st34" data-name="st" class="st54" d="M43.44,43.47l.46,1.42-1.21-.88h1.49l-1.21.88.46-1.42Z"/>
            <path id="st35" data-name="st" class="st54" d="M43.44,46.21l.46,1.42-1.21-.88h1.49l-1.21.88.46-1.42Z"/>
          </g>
        </g>
      </g>
      <g id="s94" data-name="s9">
        <g id="s54" data-name="s5">
          <g id="s48" data-name="s4">
            <path id="st36" data-name="st" class="st54" d="M45.05,36.6l.46,1.42-1.21-.88h1.49l-1.21.88.46-1.42Z"/>
            <path id="st37" data-name="st" class="st54" d="M45.05,39.35l.46,1.42-1.21-.88h1.49l-1.21.88.46-1.42Z"/>
            <path id="st38" data-name="st" class="st54" d="M45.05,42.09l.46,1.42-1.21-.88h1.49l-1.21.88.46-1.42Z"/>
            <path id="st39" data-name="st" class="st54" d="M45.05,44.84l.46,1.42-1.21-.88h1.49l-1.21.88.46-1.42Z"/>
          </g>
          <path id="st40" data-name="st" class="st54" d="M45.05,47.59l.46,1.42-1.21-.88h1.49l-1.21.88.46-1.42Z"/>
        </g>
        <g id="s49" data-name="s4">
          <path id="st41" data-name="st" class="st54" d="M46.67,37.97l.46,1.42-1.21-.88h1.49l-1.21.88.46-1.42Z"/>
          <path id="st42" data-name="st" class="st54" d="M46.67,40.72l.46,1.42-1.21-.88h1.49l-1.21.88.46-1.42Z"/>
          <path id="st43" data-name="st" class="st54" d="M46.67,43.47l.46,1.42-1.21-.88h1.49l-1.21.88.46-1.42Z"/>
          <path id="st44" data-name="st" class="st54" d="M46.67,46.21l.46,1.42-1.21-.88h1.49l-1.21.88.46-1.42Z"/>
        </g>
      </g>
      <g id="s55" data-name="s5">
        <g id="s410" data-name="s4">
          <path id="st45" data-name="st" class="st54" d="M48.28,36.6l.46,1.42-1.21-.88h1.49l-1.21.88.46-1.42Z"/>
          <path id="st46" data-name="st" class="st54" d="M48.28,39.35l.46,1.42-1.21-.88h1.49l-1.21.88.46-1.42Z"/>
          <path id="st47" data-name="st" class="st54" d="M48.28,42.09l.46,1.42-1.21-.88h1.49l-1.21.88.46-1.42Z"/>
          <path id="st48" data-name="st" class="st54" d="M48.28,44.84l.46,1.42-1.21-.88h1.49l-1.21.88.46-1.42Z"/>
        </g>
        <path id="st49" data-name="st" class="st54" d="M48.28,47.59l.46,1.42-1.21-.88h1.49l-1.21.88.46-1.42Z"/>
      </g>
    </g>
  </g>
  <text class="st59" transform="translate(37.81 67.94) scale(1.25 1)"><tspan x="0" y="0">IN THE</tspan></text>
  <text>
    <textPath startOffset="71.29%" xlink:href="#path"><tspan class="st54"><tspan class="st57" x="0" y="0">Designed </tspan><tspan class="st56" x="0" y="0">= </tspan><tspan class="st57" x="0" y="0" xml:space="preserve"> Laser Cut </tspan><tspan class="st56" x="0" y="0">= </tspan><tspan class="st55" x="0" y="0"> </tspan><tspan class="st57" x="0" y="0">Assembled </tspan><tspan class="st56" x="0" y="0">=</tspan></tspan>
    </textPath></text>
  <circle class="st51" cx="54.56" cy="54.54" r="32.08"/>
</svg>